<?xml version="1.0" encoding="utf-8"?>
<!-- Generator: Adobe Illustrator 23.0.5, SVG Export Plug-In . SVG Version: 6.00 Build 0)  -->
<svg version="1.1" id="Capa_1" xmlns="http://www.w3.org/2000/svg" xmlns:xlink="http://www.w3.org/1999/xlink" x="0px" y="0px"
	 viewBox="0 0 340.2 340.2" style="enable-background:new 0 0 340.2 340.2;" xml:space="preserve">
<style type="text/css">
	.st0{display:none;}
	.st1{display:inline;}
	
		.st2{fill-rule:evenodd;clip-rule:evenodd;fill:#FFFFFF;stroke:#000000;stroke-width:0.216;stroke-linejoin:bevel;stroke-miterlimit:22.9256;}
	.st3{clip-path:url(#SVGID_2_);}
	.st4{clip-path:url(#SVGID_4_);}
	.st5{clip-path:url(#SVGID_6_);}
	.st6{clip-path:url(#SVGID_8_);}
	.st7{clip-path:url(#SVGID_10_);}
	.st8{clip-path:url(#SVGID_12_);}
	.st9{clip-path:url(#SVGID_14_);}
	.st10{clip-path:url(#SVGID_16_);}
	.st11{clip-path:url(#SVGID_18_);}
	.st12{clip-path:url(#SVGID_20_);}
	.st13{clip-path:url(#SVGID_22_);}
	.st14{clip-path:url(#SVGID_24_);}
	.st15{clip-path:url(#SVGID_26_);}
	.st16{clip-path:url(#SVGID_28_);}
	.st17{clip-path:url(#SVGID_30_);}
	.st18{clip-path:url(#SVGID_32_);}
	.st19{clip-path:url(#SVGID_34_);}
	.st20{clip-path:url(#SVGID_36_);}
	.st21{clip-path:url(#SVGID_38_);}
	.st22{clip-path:url(#SVGID_40_);}
	.st23{clip-path:url(#SVGID_42_);}
	.st24{clip-path:url(#SVGID_44_);}
	.st25{clip-path:url(#SVGID_46_);}
	.st26{clip-path:url(#SVGID_48_);}
	.st27{clip-path:url(#SVGID_50_);}
	.st28{clip-path:url(#SVGID_52_);}
	.st29{clip-path:url(#SVGID_54_);}
	.st30{clip-path:url(#SVGID_56_);}
	.st31{clip-path:url(#SVGID_58_);}
	.st32{clip-path:url(#SVGID_60_);}
	.st33{clip-path:url(#SVGID_62_);}
	.st34{clip-path:url(#SVGID_64_);}
	.st35{clip-path:url(#SVGID_66_);}
	.st36{clip-path:url(#SVGID_68_);}
	.st37{clip-path:url(#SVGID_70_);}
	.st38{clip-path:url(#SVGID_72_);}
	.st39{clip-path:url(#SVGID_74_);}
	.st40{clip-path:url(#SVGID_76_);}
	.st41{clip-path:url(#SVGID_78_);}
	.st42{clip-path:url(#SVGID_80_);}
	.st43{clip-path:url(#SVGID_82_);}
	.st44{clip-path:url(#SVGID_84_);}
	.st45{clip-path:url(#SVGID_86_);}
	.st46{clip-path:url(#SVGID_88_);}
	.st47{clip-path:url(#SVGID_90_);}
	.st48{clip-path:url(#SVGID_92_);}
	.st49{clip-path:url(#SVGID_94_);}
	.st50{clip-path:url(#SVGID_96_);}
	.st51{clip-path:url(#SVGID_98_);}
	.st52{clip-path:url(#SVGID_100_);}
	.st53{clip-path:url(#SVGID_102_);}
	.st54{clip-path:url(#SVGID_104_);}
	.st55{clip-path:url(#SVGID_106_);}
	.st56{clip-path:url(#SVGID_108_);}
	.st57{clip-path:url(#SVGID_110_);}
	.st58{clip-path:url(#SVGID_112_);}
	.st59{clip-path:url(#SVGID_114_);}
	.st60{clip-path:url(#SVGID_116_);}
	.st61{clip-path:url(#SVGID_118_);}
	.st62{clip-path:url(#SVGID_120_);}
	.st63{clip-path:url(#SVGID_122_);}
	.st64{clip-path:url(#SVGID_124_);}
	.st65{clip-path:url(#SVGID_126_);}
	.st66{clip-path:url(#SVGID_128_);}
	.st67{clip-path:url(#SVGID_130_);}
	.st68{clip-path:url(#SVGID_132_);}
	.st69{fill-rule:evenodd;clip-rule:evenodd;fill:#2AC5F4;}
	.st70{fill-rule:evenodd;clip-rule:evenodd;}
	.st71{fill-rule:evenodd;clip-rule:evenodd;fill:#FFFFFF;}
	.st72{fill-rule:evenodd;clip-rule:evenodd;fill:#45C1EF;}
	.st73{fill-rule:evenodd;clip-rule:evenodd;stroke:#000000;stroke-width:4;stroke-miterlimit:22.9256;}
	.st74{fill:none;stroke:#000000;stroke-width:7.9999;stroke-linecap:round;stroke-miterlimit:10;}
	.st75{fill:none;stroke:#000000;stroke-width:4;stroke-linecap:round;stroke-miterlimit:10;}
	.st76{fill:#26B3E4;}
	.st77{fill:#FFFFFF;}
</style>
<g class="st0">
	<g class="st1">
		<rect x="47.2" y="8.1" class="st2" width="215" height="383"/>
		<g>
			<g>
				<defs>
					<rect id="SVGID_1_" x="226" y="796.5" width="36" height="35.3"/>
				</defs>
				<clipPath id="SVGID_2_">
					<use xlink:href="#SVGID_1_"  style="overflow:visible;"/>
				</clipPath>
				<g transform="matrix(1 0 0 1 0 0)" class="st3">
					
						<image style="overflow:visible;enable-background:new    ;" width="49" height="49" xlink:href="1BAB1288.jpeg"  transform="matrix(0.7188 0 0 -0.7205 226.3538 831.7905)">
					</image>
				</g>
			</g>
		</g>
		<g>
			<g>
				<defs>
					<rect id="SVGID_3_" x="190" y="796.5" width="36" height="35.3"/>
				</defs>
				<clipPath id="SVGID_4_">
					<use xlink:href="#SVGID_3_"  style="overflow:visible;"/>
				</clipPath>
				<g transform="matrix(1 0 0 1 0 0)" class="st4">
					
						<image style="overflow:visible;enable-background:new    ;" width="48" height="49" xlink:href="1BAB1288.jpeg"  transform="matrix(0.7188 0 0 -0.7205 190.7416 831.7905)">
					</image>
				</g>
			</g>
		</g>
		<g>
			<g>
				<defs>
					<rect id="SVGID_5_" x="154" y="796.5" width="36" height="35.3"/>
				</defs>
				<clipPath id="SVGID_6_">
					<use xlink:href="#SVGID_5_"  style="overflow:visible;"/>
				</clipPath>
				<g transform="matrix(1 0 0 1 0 0)" class="st5">
					
						<image style="overflow:visible;enable-background:new    ;" width="49" height="49" xlink:href="1BAB1288.jpeg"  transform="matrix(0.7188 0 0 -0.7205 154.4108 831.7905)">
					</image>
				</g>
			</g>
		</g>
		<g>
			<g>
				<defs>
					<rect id="SVGID_7_" x="118.1" y="796.5" width="36" height="35.3"/>
				</defs>
				<clipPath id="SVGID_8_">
					<use xlink:href="#SVGID_7_"  style="overflow:visible;"/>
				</clipPath>
				<g transform="matrix(1 0 0 1 0 0)" class="st6">
					
						<image style="overflow:visible;enable-background:new    ;" width="49" height="49" xlink:href="1BAB1288.jpeg"  transform="matrix(0.7188 0 0 -0.7205 118.4391 831.7905)">
					</image>
				</g>
			</g>
		</g>
		<g>
			<g>
				<defs>
					<rect id="SVGID_9_" x="82.1" y="796.5" width="36" height="35.3"/>
				</defs>
				<clipPath id="SVGID_10_">
					<use xlink:href="#SVGID_9_"  style="overflow:visible;"/>
				</clipPath>
				<g transform="matrix(1 0 0 1 0 0)" class="st7">
					
						<image style="overflow:visible;enable-background:new    ;" width="49" height="49" xlink:href="1BAB1288.jpeg"  transform="matrix(0.7188 0 0 -0.7205 82.4675 831.7905)">
					</image>
				</g>
			</g>
		</g>
		<g>
			<g>
				<defs>
					<rect id="SVGID_11_" x="47.2" y="8.1" width="215" height="383"/>
				</defs>
				<clipPath id="SVGID_12_">
					<use xlink:href="#SVGID_11_"  style="overflow:visible;"/>
				</clipPath>
				<g transform="matrix(1 0 0 1 0 0)" class="st8">
					
						<image style="overflow:visible;enable-background:new    ;" width="49" height="48" xlink:href="1BAB1288.jpeg"  transform="matrix(0.7188 0 0 -0.7205 46.8703 1642.0579)">
					</image>
				</g>
			</g>
		</g>
		<g>
			<g>
				<defs>
					<rect id="SVGID_13_" x="226" y="689.8" width="36" height="36.1"/>
				</defs>
				<clipPath id="SVGID_14_">
					<use xlink:href="#SVGID_13_"  style="overflow:visible;"/>
				</clipPath>
				<g transform="matrix(1 0 0 1 0 0)" class="st9">
					
						<image style="overflow:visible;enable-background:new    ;" width="49" height="49" xlink:href="1BAB1288.jpeg"  transform="matrix(0.7341 0 0 -0.7359 225.9791 725.874)">
					</image>
				</g>
			</g>
		</g>
		<g>
			<g>
				<defs>
					<rect id="SVGID_15_" x="190" y="689.8" width="36" height="36.1"/>
				</defs>
				<clipPath id="SVGID_16_">
					<use xlink:href="#SVGID_15_"  style="overflow:visible;"/>
				</clipPath>
				<g transform="matrix(1 0 0 1 0 0)" class="st10">
					
						<image style="overflow:visible;enable-background:new    ;" width="48" height="49" xlink:href="1BAB1298.jpeg"  transform="matrix(0.7341 0 0 -0.7359 190.3746 725.874)">
					</image>
				</g>
			</g>
		</g>
		<g>
			<g>
				<defs>
					<rect id="SVGID_17_" x="154" y="689.8" width="36" height="36.1"/>
				</defs>
				<clipPath id="SVGID_18_">
					<use xlink:href="#SVGID_17_"  style="overflow:visible;"/>
				</clipPath>
				<g transform="matrix(1 0 0 1 0 0)" class="st11">
					
						<image style="overflow:visible;enable-background:new    ;" width="49" height="49" xlink:href="1BAB1298.jpeg"  transform="matrix(0.7341 0 0 -0.7359 154.0361 725.874)">
					</image>
				</g>
			</g>
		</g>
		<g>
			<g>
				<defs>
					<rect id="SVGID_19_" x="118.1" y="689.8" width="36" height="36.1"/>
				</defs>
				<clipPath id="SVGID_20_">
					<use xlink:href="#SVGID_19_"  style="overflow:visible;"/>
				</clipPath>
				<g transform="matrix(1 0 0 1 0 0)" class="st12">
					
						<image style="overflow:visible;enable-background:new    ;" width="49" height="49" xlink:href="FFB9ADF7.jpeg"  transform="matrix(0.7341 0 0 -0.7359 118.0644 725.874)">
					</image>
				</g>
			</g>
		</g>
		<g>
			<g>
				<defs>
					<rect id="SVGID_21_" x="82.1" y="689.8" width="36" height="36.1"/>
				</defs>
				<clipPath id="SVGID_22_">
					<use xlink:href="#SVGID_21_"  style="overflow:visible;"/>
				</clipPath>
				<g transform="matrix(1 0 0 1 0 0)" class="st13">
					
						<image style="overflow:visible;enable-background:new    ;" width="49" height="49" xlink:href="FFB9ADF5.jpeg"  transform="matrix(0.7341 0 0 -0.7359 82.0928 725.874)">
					</image>
				</g>
			</g>
		</g>
		<g>
			<g>
				<defs>
					<rect id="SVGID_23_" x="47.2" y="8.1" width="215" height="383"/>
				</defs>
				<clipPath id="SVGID_24_">
					<use xlink:href="#SVGID_23_"  style="overflow:visible;"/>
				</clipPath>
				<g transform="matrix(1 0 0 1 0 0)" class="st14">
					
						<image style="overflow:visible;enable-background:new    ;" width="49" height="49" xlink:href="FFB9ADF3.jpeg"  transform="matrix(0.7188 0 0 -0.7205 46.8703 1322.7906)">
					</image>
				</g>
			</g>
		</g>
		<g>
			<g>
				<defs>
					<rect id="SVGID_25_" x="226" y="581.7" width="36" height="36.1"/>
				</defs>
				<clipPath id="SVGID_26_">
					<use xlink:href="#SVGID_25_"  style="overflow:visible;"/>
				</clipPath>
				<g transform="matrix(1 0 0 1 0 0)" class="st15">
					
						<image style="overflow:visible;enable-background:new    ;" width="49" height="49" xlink:href="FFB9AE0D.jpeg"  transform="matrix(0.7341 0 0 -0.7359 225.9791 617.7039)">
					</image>
				</g>
			</g>
		</g>
		<g>
			<g>
				<defs>
					<rect id="SVGID_27_" x="190" y="581.7" width="36" height="36.1"/>
				</defs>
				<clipPath id="SVGID_28_">
					<use xlink:href="#SVGID_27_"  style="overflow:visible;"/>
				</clipPath>
				<g transform="matrix(1 0 0 1 0 0)" class="st16">
					
						<image style="overflow:visible;enable-background:new    ;" width="48" height="49" xlink:href="FFB9AE0F.jpeg"  transform="matrix(0.7341 0 0 -0.7359 190.3746 617.7039)">
					</image>
				</g>
			</g>
		</g>
		<g>
			<g>
				<defs>
					<rect id="SVGID_29_" x="154" y="581.7" width="36" height="36.1"/>
				</defs>
				<clipPath id="SVGID_30_">
					<use xlink:href="#SVGID_29_"  style="overflow:visible;"/>
				</clipPath>
				<g transform="matrix(1 0 0 1 0 0)" class="st17">
					
						<image style="overflow:visible;enable-background:new    ;" width="49" height="49" xlink:href="FFB9AE0D.jpeg"  transform="matrix(0.7341 0 0 -0.7359 154.0361 617.7039)">
					</image>
				</g>
			</g>
		</g>
		<g>
			<g>
				<defs>
					<rect id="SVGID_31_" x="118.1" y="581.7" width="36" height="36.1"/>
				</defs>
				<clipPath id="SVGID_32_">
					<use xlink:href="#SVGID_31_"  style="overflow:visible;"/>
				</clipPath>
				<g transform="matrix(1 0 0 1 0 0)" class="st18">
					
						<image style="overflow:visible;enable-background:new    ;" width="49" height="49" xlink:href="FFB9AE13.jpeg"  transform="matrix(0.7341 0 0 -0.7359 118.0644 617.7039)">
					</image>
				</g>
			</g>
		</g>
		<g>
			<g>
				<defs>
					<rect id="SVGID_33_" x="82.1" y="581.7" width="36" height="36.1"/>
				</defs>
				<clipPath id="SVGID_34_">
					<use xlink:href="#SVGID_33_"  style="overflow:visible;"/>
				</clipPath>
				<g transform="matrix(1 0 0 1 0 0)" class="st19">
					
						<image style="overflow:visible;enable-background:new    ;" width="49" height="49" xlink:href="FFB9AE15.jpeg"  transform="matrix(0.7341 0 0 -0.7359 82.0928 617.7039)">
					</image>
				</g>
			</g>
		</g>
		<g>
			<g>
				<defs>
					<rect id="SVGID_35_" x="47.2" y="8.1" width="215" height="383"/>
				</defs>
				<clipPath id="SVGID_36_">
					<use xlink:href="#SVGID_35_"  style="overflow:visible;"/>
				</clipPath>
				<g transform="matrix(1 0 0 1 0 0)" class="st20">
					
						<image style="overflow:visible;enable-background:new    ;" width="49" height="49" xlink:href="FFB9AE17.jpeg"  transform="matrix(0.7188 0 0 -0.7205 46.8703 998.2803)">
					</image>
				</g>
			</g>
		</g>
		<g>
			<g>
				<defs>
					<rect id="SVGID_37_" x="226" y="473.5" width="36" height="36.1"/>
				</defs>
				<clipPath id="SVGID_38_">
					<use xlink:href="#SVGID_37_"  style="overflow:visible;"/>
				</clipPath>
				<g transform="matrix(1 0 0 1 0 -3.051758e-05)" class="st21">
					
						<image style="overflow:visible;enable-background:new    ;" width="49" height="49" xlink:href="FFB9AE15.jpeg"  transform="matrix(0.7341 0 0 -0.7359 225.9791 509.5338)">
					</image>
				</g>
			</g>
		</g>
		<g>
			<g>
				<defs>
					<rect id="SVGID_39_" x="190" y="473.5" width="36" height="36.1"/>
				</defs>
				<clipPath id="SVGID_40_">
					<use xlink:href="#SVGID_39_"  style="overflow:visible;"/>
				</clipPath>
				<g transform="matrix(1 0 0 1 0 -3.051758e-05)" class="st22">
					
						<image style="overflow:visible;enable-background:new    ;" width="48" height="49" xlink:href="FFB9AE36.jpeg"  transform="matrix(0.7341 0 0 -0.7359 190.3746 509.5338)">
					</image>
				</g>
			</g>
		</g>
		<g>
			<g>
				<defs>
					<rect id="SVGID_41_" x="154" y="473.5" width="36" height="36.1"/>
				</defs>
				<clipPath id="SVGID_42_">
					<use xlink:href="#SVGID_41_"  style="overflow:visible;"/>
				</clipPath>
				<g transform="matrix(1 0 0 1 0 -3.051758e-05)" class="st23">
					
						<image style="overflow:visible;enable-background:new    ;" width="49" height="49" xlink:href="FFB9AE36.jpeg"  transform="matrix(0.7341 0 0 -0.7359 154.0361 509.5338)">
					</image>
				</g>
			</g>
		</g>
		<g>
			<g>
				<defs>
					<rect id="SVGID_43_" x="118.1" y="473.5" width="36" height="36.1"/>
				</defs>
				<clipPath id="SVGID_44_">
					<use xlink:href="#SVGID_43_"  style="overflow:visible;"/>
				</clipPath>
				<g transform="matrix(1 0 0 1 0 -3.051758e-05)" class="st24">
					
						<image style="overflow:visible;enable-background:new    ;" width="49" height="49" xlink:href="FFB9AE32.jpeg"  transform="matrix(0.7341 0 0 -0.7359 118.0644 509.5338)">
					</image>
				</g>
			</g>
		</g>
		<g>
			<g>
				<defs>
					<rect id="SVGID_45_" x="82.1" y="473.5" width="36" height="36.1"/>
				</defs>
				<clipPath id="SVGID_46_">
					<use xlink:href="#SVGID_45_"  style="overflow:visible;"/>
				</clipPath>
				<g transform="matrix(1 0 0 1 0 -3.051758e-05)" class="st25">
					
						<image style="overflow:visible;enable-background:new    ;" width="49" height="49" xlink:href="FFB9AE32.jpeg"  transform="matrix(0.7341 0 0 -0.7359 82.0928 509.5338)">
					</image>
				</g>
			</g>
		</g>
		<g>
			<g>
				<defs>
					<rect id="SVGID_47_" x="47.2" y="8.1" width="215" height="383"/>
				</defs>
				<clipPath id="SVGID_48_">
					<use xlink:href="#SVGID_47_"  style="overflow:visible;"/>
				</clipPath>
				<g transform="matrix(1 0 0 1 0 0)" class="st26">
					
						<image style="overflow:visible;enable-background:new    ;" width="49" height="49" xlink:href="FFB9AE3E.jpeg"  transform="matrix(0.7188 0 0 -0.7205 46.8703 673.7701)">
					</image>
				</g>
			</g>
		</g>
		<g>
			<g>
				<defs>
					<rect id="SVGID_49_" x="226" y="365.3" width="36" height="36.1"/>
				</defs>
				<clipPath id="SVGID_50_">
					<use xlink:href="#SVGID_49_"  style="overflow:visible;"/>
				</clipPath>
				<g transform="matrix(1 0 0 1 0 3.051758e-05)" class="st27">
					
						<image style="overflow:visible;enable-background:new    ;" width="49" height="49" xlink:href="FFB9AE3E.jpeg"  transform="matrix(0.7341 0 0 -0.7359 225.9791 401.3637)">
					</image>
				</g>
			</g>
		</g>
		<g>
			<g>
				<defs>
					<rect id="SVGID_51_" x="190" y="365.3" width="36" height="36.1"/>
				</defs>
				<clipPath id="SVGID_52_">
					<use xlink:href="#SVGID_51_"  style="overflow:visible;"/>
				</clipPath>
				<g transform="matrix(1 0 0 1 0 3.051758e-05)" class="st28">
					
						<image style="overflow:visible;enable-background:new    ;" width="48" height="49" xlink:href="FFB9AE32.jpeg"  transform="matrix(0.7341 0 0 -0.7359 190.3746 401.3637)">
					</image>
				</g>
			</g>
		</g>
		<g>
			<g>
				<defs>
					<rect id="SVGID_53_" x="154" y="365.3" width="36" height="36.1"/>
				</defs>
				<clipPath id="SVGID_54_">
					<use xlink:href="#SVGID_53_"  style="overflow:visible;"/>
				</clipPath>
				<g transform="matrix(1 0 0 1 0 3.051758e-05)" class="st29">
					
						<image style="overflow:visible;enable-background:new    ;" width="49" height="49" xlink:href="FFB9AE32.jpeg"  transform="matrix(0.7341 0 0 -0.7359 154.0361 401.3637)">
					</image>
				</g>
			</g>
		</g>
		<g>
			<g>
				<defs>
					<rect id="SVGID_55_" x="118.1" y="365.3" width="36" height="36.1"/>
				</defs>
				<clipPath id="SVGID_56_">
					<use xlink:href="#SVGID_55_"  style="overflow:visible;"/>
				</clipPath>
				<g transform="matrix(1 0 0 1 0 3.051758e-05)" class="st30">
					
						<image style="overflow:visible;enable-background:new    ;" width="49" height="49" xlink:href="FFB9AE36.jpeg"  transform="matrix(0.7341 0 0 -0.7359 118.0644 401.3637)">
					</image>
				</g>
			</g>
		</g>
		<g>
			<g>
				<defs>
					<rect id="SVGID_57_" x="82.1" y="365.3" width="36" height="36.1"/>
				</defs>
				<clipPath id="SVGID_58_">
					<use xlink:href="#SVGID_57_"  style="overflow:visible;"/>
				</clipPath>
				<g transform="matrix(1 0 0 1 0 3.051758e-05)" class="st31">
					
						<image style="overflow:visible;enable-background:new    ;" width="49" height="49" xlink:href="FFB9AE36.jpeg"  transform="matrix(0.7341 0 0 -0.7359 82.0928 401.3637)">
					</image>
				</g>
			</g>
		</g>
		<g>
			<g>
				<defs>
					<rect id="SVGID_59_" x="47.2" y="8.2" width="215" height="383"/>
				</defs>
				<clipPath id="SVGID_60_">
					<use xlink:href="#SVGID_59_"  style="overflow:visible;"/>
				</clipPath>
				<g transform="matrix(1 0 0 1 0 3.051758e-05)" class="st32">
					
						<image style="overflow:visible;enable-background:new    ;" width="49" height="49" xlink:href="FFB9AE59.jpeg"  transform="matrix(0.7188 0 0 -0.7205 46.8703 400.9881)">
					</image>
				</g>
			</g>
		</g>
		<g>
			<g>
				<defs>
					<rect id="SVGID_61_" x="226" y="257.1" width="36" height="36.1"/>
				</defs>
				<clipPath id="SVGID_62_">
					<use xlink:href="#SVGID_61_"  style="overflow:visible;"/>
				</clipPath>
				<g transform="matrix(1 0 0 1 0 0)" class="st33">
					
						<image style="overflow:visible;enable-background:new    ;" width="49" height="49" xlink:href="FFB9AE57.jpeg"  transform="matrix(0.7341 0 0 -0.7359 225.9791 293.1937)">
					</image>
				</g>
			</g>
		</g>
		<g>
			<g>
				<defs>
					<rect id="SVGID_63_" x="190" y="257.1" width="36" height="36.1"/>
				</defs>
				<clipPath id="SVGID_64_">
					<use xlink:href="#SVGID_63_"  style="overflow:visible;"/>
				</clipPath>
				<g transform="matrix(1 0 0 1 0 0)" class="st34">
					
						<image style="overflow:visible;enable-background:new    ;" width="48" height="49" xlink:href="FFB9AE69.jpeg"  transform="matrix(0.7341 0 0 -0.7359 190.3746 293.1937)">
					</image>
				</g>
			</g>
		</g>
		<g>
			<g>
				<defs>
					<rect id="SVGID_65_" x="154" y="257.1" width="36" height="36.1"/>
				</defs>
				<clipPath id="SVGID_66_">
					<use xlink:href="#SVGID_65_"  style="overflow:visible;"/>
				</clipPath>
				<g transform="matrix(1 0 0 1 0 0)" class="st35">
					
						<image style="overflow:visible;enable-background:new    ;" width="49" height="49" xlink:href="FFB9AE6B.jpeg"  transform="matrix(0.7341 0 0 -0.7359 154.0361 293.1937)">
					</image>
				</g>
			</g>
		</g>
		<g>
			<g>
				<defs>
					<rect id="SVGID_67_" x="118.1" y="257.1" width="36" height="36.1"/>
				</defs>
				<clipPath id="SVGID_68_">
					<use xlink:href="#SVGID_67_"  style="overflow:visible;"/>
				</clipPath>
				<g transform="matrix(1 0 0 1 0 0)" class="st36">
					
						<image style="overflow:visible;enable-background:new    ;" width="49" height="49" xlink:href="FFB9AE69.jpeg"  transform="matrix(0.7341 0 0 -0.7359 118.0644 293.1937)">
					</image>
				</g>
			</g>
		</g>
		<g>
			<g>
				<defs>
					<rect id="SVGID_69_" x="82.1" y="257.1" width="36" height="36.1"/>
				</defs>
				<clipPath id="SVGID_70_">
					<use xlink:href="#SVGID_69_"  style="overflow:visible;"/>
				</clipPath>
				<g transform="matrix(1 0 0 1 0 0)" class="st37">
					
						<image style="overflow:visible;enable-background:new    ;" width="49" height="49" xlink:href="FFB9AE6F.jpeg"  transform="matrix(0.7341 0 0 -0.7359 82.0928 293.1937)">
					</image>
				</g>
			</g>
		</g>
		<g>
			<g>
				<defs>
					<rect id="SVGID_71_" x="47.2" y="8.1" width="215" height="383"/>
				</defs>
				<clipPath id="SVGID_72_">
					<use xlink:href="#SVGID_71_"  style="overflow:visible;"/>
				</clipPath>
				<g transform="matrix(1 0 0 1 0 0)" class="st38">
					
						<image style="overflow:visible;enable-background:new    ;" width="49" height="49" xlink:href="FFB9AE69.jpeg"  transform="matrix(0.7188 0 0 -0.7205 46.8703 292.8181)">
					</image>
				</g>
			</g>
		</g>
		<g>
			<g>
				<defs>
					<rect id="SVGID_73_" x="226" y="149" width="36" height="36.1"/>
				</defs>
				<clipPath id="SVGID_74_">
					<use xlink:href="#SVGID_73_"  style="overflow:visible;"/>
				</clipPath>
				<g transform="matrix(1 0 0 1 0 0)" class="st39">
					
						<image style="overflow:visible;enable-background:new    ;" width="49" height="49" xlink:href="FFB9AE6B.jpeg"  transform="matrix(0.7341 0 0 -0.7359 225.9791 185.0234)">
					</image>
				</g>
			</g>
		</g>
		<g>
			<g>
				<defs>
					<rect id="SVGID_75_" x="190" y="149" width="36" height="36.1"/>
				</defs>
				<clipPath id="SVGID_76_">
					<use xlink:href="#SVGID_75_"  style="overflow:visible;"/>
				</clipPath>
				<g transform="matrix(1 0 0 1 0 0)" class="st40">
					
						<image style="overflow:visible;enable-background:new    ;" width="48" height="49" xlink:href="FFB9AE69.jpeg"  transform="matrix(0.7341 0 0 -0.7359 190.3746 185.0234)">
					</image>
				</g>
			</g>
		</g>
		<g>
			<g>
				<defs>
					<rect id="SVGID_77_" x="154" y="149" width="36" height="36.1"/>
				</defs>
				<clipPath id="SVGID_78_">
					<use xlink:href="#SVGID_77_"  style="overflow:visible;"/>
				</clipPath>
				<g transform="matrix(1 0 0 1 0 0)" class="st41">
					
						<image style="overflow:visible;enable-background:new    ;" width="49" height="49" xlink:href="FFB9AE77.jpeg"  transform="matrix(0.7341 0 0 -0.7359 154.0361 185.0234)">
					</image>
				</g>
			</g>
		</g>
		<g>
			<g>
				<defs>
					<rect id="SVGID_79_" x="118.1" y="149" width="36" height="36.1"/>
				</defs>
				<clipPath id="SVGID_80_">
					<use xlink:href="#SVGID_79_"  style="overflow:visible;"/>
				</clipPath>
				<g transform="matrix(1 0 0 1 0 0)" class="st42">
					
						<image style="overflow:visible;enable-background:new    ;" width="49" height="49" xlink:href="FFB9AE44.jpeg"  transform="matrix(0.7341 0 0 -0.7359 118.0644 185.0234)">
					</image>
				</g>
			</g>
		</g>
		<g>
			<g>
				<defs>
					<rect id="SVGID_81_" x="82.1" y="149" width="36" height="36.1"/>
				</defs>
				<clipPath id="SVGID_82_">
					<use xlink:href="#SVGID_81_"  style="overflow:visible;"/>
				</clipPath>
				<g transform="matrix(1 0 0 1 0 0)" class="st43">
					
						<image style="overflow:visible;enable-background:new    ;" width="49" height="49" xlink:href="FFB9AE44.jpeg"  transform="matrix(0.7341 0 0 -0.7359 82.0928 185.0234)">
					</image>
				</g>
			</g>
		</g>
		<g>
			<g>
				<defs>
					<rect id="SVGID_83_" x="47.2" y="8.1" width="215" height="383"/>
				</defs>
				<clipPath id="SVGID_84_">
					<use xlink:href="#SVGID_83_"  style="overflow:visible;"/>
				</clipPath>
				<g transform="matrix(1 0 0 1 0 0)" class="st44">
					
						<image style="overflow:visible;enable-background:new    ;" width="49" height="49" xlink:href="FFB9AE44.jpeg"  transform="matrix(0.7188 0 0 -0.7205 46.8703 184.6478)">
					</image>
				</g>
			</g>
		</g>
		<g>
			<g>
				<defs>
					<rect id="SVGID_85_" x="226" y="40.8" width="36" height="36.1"/>
				</defs>
				<clipPath id="SVGID_86_">
					<use xlink:href="#SVGID_85_"  style="overflow:visible;"/>
				</clipPath>
				<g transform="matrix(1 0 0 1 0 0)" class="st45">
					
						<image style="overflow:visible;enable-background:new    ;" width="49" height="49" xlink:href="FFB9AE44.jpeg"  transform="matrix(0.7341 0 0 -0.7359 225.9791 76.8539)">
					</image>
				</g>
			</g>
		</g>
		<g>
			<g>
				<defs>
					<rect id="SVGID_87_" x="190" y="40.8" width="36" height="36.1"/>
				</defs>
				<clipPath id="SVGID_88_">
					<use xlink:href="#SVGID_87_"  style="overflow:visible;"/>
				</clipPath>
				<g transform="matrix(1 0 0 1 0 0)" class="st46">
					
						<image style="overflow:visible;enable-background:new    ;" width="48" height="49" xlink:href="FFB9AE5C.jpeg"  transform="matrix(0.7341 0 0 -0.7359 190.3746 76.8539)">
					</image>
				</g>
			</g>
		</g>
		<g>
			<g>
				<defs>
					<rect id="SVGID_89_" x="154" y="40.8" width="36" height="36.1"/>
				</defs>
				<clipPath id="SVGID_90_">
					<use xlink:href="#SVGID_89_"  style="overflow:visible;"/>
				</clipPath>
				<g transform="matrix(1 0 0 1 0 0)" class="st47">
					
						<image style="overflow:visible;enable-background:new    ;" width="49" height="49" xlink:href="FFB9AE5C.jpeg"  transform="matrix(0.7341 0 0 -0.7359 154.0361 76.8539)">
					</image>
				</g>
			</g>
		</g>
		<g>
			<g>
				<defs>
					<rect id="SVGID_91_" x="118.1" y="40.8" width="36" height="36.1"/>
				</defs>
				<clipPath id="SVGID_92_">
					<use xlink:href="#SVGID_91_"  style="overflow:visible;"/>
				</clipPath>
				<g transform="matrix(1 0 0 1 0 0)" class="st48">
					
						<image style="overflow:visible;enable-background:new    ;" width="49" height="49" xlink:href="FFB9AE5C.jpeg"  transform="matrix(0.7341 0 0 -0.7359 118.0644 76.8539)">
					</image>
				</g>
			</g>
		</g>
		<g>
			<g>
				<defs>
					<rect id="SVGID_93_" x="82.1" y="40.8" width="36" height="36.1"/>
				</defs>
				<clipPath id="SVGID_94_">
					<use xlink:href="#SVGID_93_"  style="overflow:visible;"/>
				</clipPath>
				<g transform="matrix(1 0 0 1 0 0)" class="st49">
					
						<image style="overflow:visible;enable-background:new    ;" width="49" height="49" xlink:href="FFB9AE5C.jpeg"  transform="matrix(0.7341 0 0 -0.7359 82.0928 76.8539)">
					</image>
				</g>
			</g>
		</g>
		<g>
			<g>
				<defs>
					<rect id="SVGID_95_" x="47.2" y="8.1" width="215" height="383"/>
				</defs>
				<clipPath id="SVGID_96_">
					<use xlink:href="#SVGID_95_"  style="overflow:visible;"/>
				</clipPath>
				<g transform="matrix(1 0 0 1 0 0)" class="st50">
					
						<image style="overflow:visible;enable-background:new    ;" width="49" height="49" xlink:href="FFB9AE44.jpeg"  transform="matrix(0.7188 0 0 -0.7205 46.8703 76.4783)">
					</image>
				</g>
			</g>
		</g>
		<g>
			<g>
				<defs>
					<rect id="SVGID_97_" x="226" y="-67.4" width="36" height="36.1"/>
				</defs>
				<clipPath id="SVGID_98_">
					<use xlink:href="#SVGID_97_"  style="overflow:visible;"/>
				</clipPath>
				<g transform="matrix(1 0 0 1 0 0)" class="st51">
					
						<image style="overflow:visible;enable-background:new    ;" width="49" height="49" xlink:href="FFB9AE44.jpeg"  transform="matrix(0.7341 0 0 -0.7359 225.9791 -31.3162)">
					</image>
				</g>
			</g>
		</g>
		<g>
			<g>
				<defs>
					<rect id="SVGID_99_" x="190" y="-67.4" width="36" height="36.1"/>
				</defs>
				<clipPath id="SVGID_100_">
					<use xlink:href="#SVGID_99_"  style="overflow:visible;"/>
				</clipPath>
				<g transform="matrix(1 0 0 1 0 0)" class="st52">
					
						<image style="overflow:visible;enable-background:new    ;" width="48" height="49" xlink:href="FFB9AEA3.jpeg"  transform="matrix(0.7341 0 0 -0.7359 190.3746 -31.3162)">
					</image>
				</g>
			</g>
		</g>
		<g>
			<g>
				<defs>
					<rect id="SVGID_101_" x="154" y="-67.4" width="36" height="36.1"/>
				</defs>
				<clipPath id="SVGID_102_">
					<use xlink:href="#SVGID_101_"  style="overflow:visible;"/>
				</clipPath>
				<g transform="matrix(1 0 0 1 0 0)" class="st53">
					
						<image style="overflow:visible;enable-background:new    ;" width="49" height="49" xlink:href="FFB9AEA1.jpeg"  transform="matrix(0.7341 0 0 -0.7359 154.0361 -31.3162)">
					</image>
				</g>
			</g>
		</g>
		<g>
			<g>
				<defs>
					<rect id="SVGID_103_" x="118.1" y="-67.4" width="36" height="36.1"/>
				</defs>
				<clipPath id="SVGID_104_">
					<use xlink:href="#SVGID_103_"  style="overflow:visible;"/>
				</clipPath>
				<g transform="matrix(1 0 0 1 0 0)" class="st54">
					
						<image style="overflow:visible;enable-background:new    ;" width="49" height="49" xlink:href="FFB9AEA7.jpeg"  transform="matrix(0.7341 0 0 -0.7359 118.0644 -31.3162)">
					</image>
				</g>
			</g>
		</g>
		<g>
			<g>
				<defs>
					<rect id="SVGID_105_" x="82.1" y="-67.4" width="36" height="36.1"/>
				</defs>
				<clipPath id="SVGID_106_">
					<use xlink:href="#SVGID_105_"  style="overflow:visible;"/>
				</clipPath>
				<g transform="matrix(1 0 0 1 0 0)" class="st55">
					
						<image style="overflow:visible;enable-background:new    ;" width="49" height="49" xlink:href="FFB9AEA1.jpeg"  transform="matrix(0.7341 0 0 -0.7359 82.0928 -31.3162)">
					</image>
				</g>
			</g>
		</g>
		<g>
			<g>
				<defs>
					<rect id="SVGID_107_" x="47.2" y="8.1" width="215" height="383"/>
				</defs>
				<clipPath id="SVGID_108_">
					<use xlink:href="#SVGID_107_"  style="overflow:visible;"/>
				</clipPath>
				<g transform="matrix(1 0 0 1 0 0)" class="st56">
					
						<image style="overflow:visible;enable-background:new    ;" width="49" height="49" xlink:href="FFB9AEA3.jpeg"  transform="matrix(0.7188 0 0 -0.7205 46.8703 47.2491)">
					</image>
				</g>
			</g>
		</g>
		<g>
			<g>
				<defs>
					<rect id="SVGID_109_" x="226" y="-175.5" width="36" height="36.1"/>
				</defs>
				<clipPath id="SVGID_110_">
					<use xlink:href="#SVGID_109_"  style="overflow:visible;"/>
				</clipPath>
				<g transform="matrix(1 0 0 1 0 0)" class="st57">
					
						<image style="overflow:visible;enable-background:new    ;" width="49" height="49" xlink:href="FFB9AEA1.jpeg"  transform="matrix(0.7341 0 0 -0.7359 225.9791 -139.4863)">
					</image>
				</g>
			</g>
		</g>
		<g>
			<g>
				<defs>
					<rect id="SVGID_111_" x="190" y="-175.5" width="36" height="36.1"/>
				</defs>
				<clipPath id="SVGID_112_">
					<use xlink:href="#SVGID_111_"  style="overflow:visible;"/>
				</clipPath>
				<g transform="matrix(1 0 0 1 0 0)" class="st58">
					
						<image style="overflow:visible;enable-background:new    ;" width="48" height="49" xlink:href="FFB9AEAF.jpeg"  transform="matrix(0.7341 0 0 -0.7359 190.3746 -139.4863)">
					</image>
				</g>
			</g>
		</g>
		<g>
			<g>
				<defs>
					<rect id="SVGID_113_" x="154" y="-175.5" width="36" height="36.1"/>
				</defs>
				<clipPath id="SVGID_114_">
					<use xlink:href="#SVGID_113_"  style="overflow:visible;"/>
				</clipPath>
				<g transform="matrix(1 0 0 1 0 0)" class="st59">
					
						<image style="overflow:visible;enable-background:new    ;" width="49" height="49" xlink:href="FFB9AEA1.jpeg"  transform="matrix(0.7341 0 0 -0.7359 154.0361 -139.4863)">
					</image>
				</g>
			</g>
		</g>
		<g>
			<g>
				<defs>
					<rect id="SVGID_115_" x="118.1" y="-175.5" width="36" height="36.1"/>
				</defs>
				<clipPath id="SVGID_116_">
					<use xlink:href="#SVGID_115_"  style="overflow:visible;"/>
				</clipPath>
				<g transform="matrix(1 0 0 1 0 0)" class="st60">
					
						<image style="overflow:visible;enable-background:new    ;" width="49" height="49" xlink:href="FFB9AEA3.jpeg"  transform="matrix(0.7341 0 0 -0.7359 118.0644 -139.4863)">
					</image>
				</g>
			</g>
		</g>
		<g>
			<g>
				<defs>
					<rect id="SVGID_117_" x="82.1" y="-175.5" width="36" height="36.1"/>
				</defs>
				<clipPath id="SVGID_118_">
					<use xlink:href="#SVGID_117_"  style="overflow:visible;"/>
				</clipPath>
				<g transform="matrix(1 0 0 1 0 0)" class="st61">
					
						<image style="overflow:visible;enable-background:new    ;" width="49" height="49" xlink:href="FFB9AEA1.jpeg"  transform="matrix(0.7341 0 0 -0.7359 82.0928 -139.4863)">
					</image>
				</g>
			</g>
		</g>
		<g>
			<g>
				<defs>
					<rect id="SVGID_119_" x="47.2" y="8.1" width="215" height="383"/>
				</defs>
				<clipPath id="SVGID_120_">
					<use xlink:href="#SVGID_119_"  style="overflow:visible;"/>
				</clipPath>
				<g transform="matrix(1 0 0 1 0 0)" class="st62">
					
						<image style="overflow:visible;enable-background:new    ;" width="49" height="49" xlink:href="FFB9AE8A.jpeg"  transform="matrix(0.7188 0 0 -0.7205 46.8703 155.4191)">
					</image>
				</g>
			</g>
		</g>
		<g>
			<g>
				<defs>
					<rect id="SVGID_121_" x="47.2" y="8.1" width="215" height="383"/>
				</defs>
				<clipPath id="SVGID_122_">
					<use xlink:href="#SVGID_121_"  style="overflow:visible;"/>
				</clipPath>
				<g transform="matrix(1 0 0 1 0 0)" class="st63">
					
						<image style="overflow:visible;enable-background:new    ;" width="49" height="33" xlink:href="FFB9AE8A.jpeg"  transform="matrix(0.704 0 0 -0.7057 226.7171 263.9648)">
					</image>
				</g>
			</g>
		</g>
		<g>
			<g>
				<defs>
					<rect id="SVGID_123_" x="47.2" y="8.1" width="215" height="383"/>
				</defs>
				<clipPath id="SVGID_124_">
					<use xlink:href="#SVGID_123_"  style="overflow:visible;"/>
				</clipPath>
				<g transform="matrix(1 0 0 1 0 0)" class="st64">
					
						<image style="overflow:visible;enable-background:new    ;" width="48" height="33" xlink:href="FFB9AE86.jpeg"  transform="matrix(0.704 0 0 -0.7057 191.0975 263.9648)">
					</image>
				</g>
			</g>
		</g>
		<g>
			<g>
				<defs>
					<rect id="SVGID_125_" x="47.2" y="8.1" width="215" height="383"/>
				</defs>
				<clipPath id="SVGID_126_">
					<use xlink:href="#SVGID_125_"  style="overflow:visible;"/>
				</clipPath>
				<g transform="matrix(1 0 0 1 0 0)" class="st65">
					
						<image style="overflow:visible;enable-background:new    ;" width="49" height="33" xlink:href="FFB9AE86.jpeg"  transform="matrix(0.704 0 0 -0.7057 154.7742 263.9648)">
					</image>
				</g>
			</g>
		</g>
		<g>
			<g>
				<defs>
					<rect id="SVGID_127_" x="47.2" y="8.1" width="215" height="383"/>
				</defs>
				<clipPath id="SVGID_128_">
					<use xlink:href="#SVGID_127_"  style="overflow:visible;"/>
				</clipPath>
				<g transform="matrix(1 0 0 1 0 0)" class="st66">
					
						<image style="overflow:visible;enable-background:new    ;" width="49" height="33" xlink:href="FFB9AEFA.jpeg"  transform="matrix(0.704 0 0 -0.7057 118.8024 263.9648)">
					</image>
				</g>
			</g>
		</g>
		<g>
			<g>
				<defs>
					<rect id="SVGID_129_" x="47.2" y="8.1" width="215" height="383"/>
				</defs>
				<clipPath id="SVGID_130_">
					<use xlink:href="#SVGID_129_"  style="overflow:visible;"/>
				</clipPath>
				<g transform="matrix(1 0 0 1 0 0)" class="st67">
					
						<image style="overflow:visible;enable-background:new    ;" width="49" height="33" xlink:href="FFB9AEFA.jpeg"  transform="matrix(0.704 0 0 -0.7057 82.8308 263.9648)">
					</image>
				</g>
			</g>
		</g>
		<g>
			<g>
				<defs>
					<rect id="SVGID_131_" x="47.2" y="8.1" width="215" height="383"/>
				</defs>
				<clipPath id="SVGID_132_">
					<use xlink:href="#SVGID_131_"  style="overflow:visible;"/>
				</clipPath>
				<g transform="matrix(1 0 0 1 0 0)" class="st68">
					
						<image style="overflow:visible;enable-background:new    ;" width="49" height="33" xlink:href="FFB9AEFE.jpeg"  transform="matrix(0.704 0 0 -0.7057 47.2336 263.9648)">
					</image>
				</g>
			</g>
		</g>
	</g>
</g>
<g id="Capa_3">
	<path class="st69" d="M435.9,236.8c-3.3-1.1-6.2-2.2-10.2-2.3c-2.9-0.1-10.3-0.2-15.4,5.2c-0.8,0.9-4.6,4.9-4.2,10.6
		c0.5,6.5,6.3,10.1,7.7,11c0.7,0.4,2.1,1.3,7.3,2.7c9.3,2.5,14.3,4.1,21.1,4c2.6,0,5.7-0.3,8.5,1.7c1.5,1.1,1.8,2,3.8,4.5
		c0,0,2.3,2.9,6.1,6.4c3.8,3.5,7.3,5.4,11.4,7.6c6.6,3.5,12.1,5.2,13.6,5.7c1.8,0.5,8.4,2.5,15.5,2.8c4.4,0.2,26.4-0.1,39.7-16.5
		c3.8-4.7,6.2-10.5,6.8-16.5c0,0,2.4-16.1-8.2-30.9c-0.6-0.8-2.8-3.9-5.9-7.5c-2.6-3-4.7-5.3-5.3-5.9c-5.4-5.5-16.1-9.8-26.4-11.2
		c-5.6-0.8-16.2-2.3-28.1,3c-12.5,5.5-18.9,15.2-21.3,18.9c-2.9,4.5-4.6,8.7-5.6,11.8C444.1,240.6,440.6,238.5,435.9,236.8z"/>
	<path class="st70" d="M487.4,231.9c1.3,0.5,4.8,2,7.1,5.9c0.6,1,2.1,3.6,1.9,7.3c-0.2,3.7-2.2,6.2-2.9,7.1c1.9-2.2,4-5.3,5.9-9.2
		c2.3-4.8,3.4-9.2,4-12.4c-2.7,0.6-4.8,0.5-6.3,0.3c-2.5-0.3-3.5-1-7.5-2.1c-2.8-0.8-4.2-1.2-5.7-1.4c-1.3-0.2-8.1-1-13.5,3.4
		c-2.3,1.8-3.5,4-4.2,5.3c1.6-1.1,4.2-2.6,7.6-3.6C477.3,231.4,482.2,229.8,487.4,231.9z"/>
	<path class="st71" d="M474.5,229.7c7.9-3.5,15.2,0.4,17.1,1.6c1.8,1.1,2.9,2.5,2.9,2.5s2,2.3,2.6,5.6c1.4,6.7-3.2,12.2-4.4,13.8
		c-1.5,1.8-4.3,5.2-9.3,6.2c-5.8,1.2-10.4-1.8-11.6-2.6c-0.4-0.3-8.6-6-7.4-15C465.7,233.8,473.3,230.2,474.5,229.7z"/>
	<path class="st70" d="M490.4,235.1c0,2-1.5,3.6-3.4,3.6s-3.4-1.6-3.4-3.6s1.5-3.6,3.4-3.6C488.9,231.6,490.4,233.2,490.4,235.1z"/>
	<path class="st69" d="M541.2,225.4c3.6,0.1,4.9,0.6,5.3,0.8c1.7,0.7,2.9,1.6,3.4,2c1.3,1,2,1.9,2.3,2.3c2.3,2.8,7.8,8.9,11.1,11.8
		c2.1,1.8,5.4,4,10.5,5.5c0.2,2,0.4,7.1-2.6,11.9c-0.5,0.9-1.8,2.9-4.3,4.7c-2.3,1.6-4.4,2.2-6.1,2.6c-2.8,0.7-9.1,2.4-11.5-0.4
		c-1.2-1.4-0.9-3.2-0.7-5.8c0.5-9.6-3-17.9-4.9-21.6c-2.6-4.9-3.8-7.3-6.2-9.7c-1.3-1.4-2.8-2.6-2.4-3.4
		C535.5,225.2,537.5,225.3,541.2,225.4z"/>
	<path class="st70" d="M481.7,238.9c6.9,4.5,8.5,15.6,4.6,19c-2.2,2-6.5,1.7-7.2,1.7c-0.4,0-2.5-0.2-5-1.3c-1.6-0.7-5.6-2.9-7.7-7.5
		c-0.6-1.2-3.4-7.2-0.5-11.2C468.9,235.4,476.9,235.7,481.7,238.9z"/>
</g>
<g>
	<g>
		<path class="st70" d="M445.9,240.6c-6.7-3.5-13.8-7.1-21.6-7.3c-5.8-0.1-12.1,2.2-15.8,6.8c-4.1,5.1-3.8,12.1-0.2,17.4
			c3.9,5.7,10.6,9,17.2,10.5c3.1,0.7,6.3,0.8,9.5,1.1c3.8,0.3,7.7,0.7,11.5,1c6.3,0.5,12.5,1.1,18.8,1.6c7.5,0.6,15,1.3,22.5,1
			c4.2-0.1,8.3-0.9,12.4-1.6c7.2-1.2,14.3-2.9,21.3-4.9c2-0.6,4-1.2,6-1.9c1.5-0.5,0.9-2.9-0.7-2.4c-12,3.9-24.6,7-37.2,8.2
			c-5.9,0.5-12-0.1-17.9-0.5c-11.9-0.8-23.8-1.9-35.6-2.9c-6.4-0.6-12.5-1-18.2-4.1c-5.6-3-11-8.7-9.9-15.6
			c1-6.4,7.5-10.3,13.5-11.1c8.2-1,16.1,3.2,23.1,6.8C446.1,243.5,447.3,241.3,445.9,240.6z"/>
	</g>
</g>
<g>
	<g>
		<path class="st70" d="M446.5,242.4c5.1-17,20.8-29.6,38-32.8c18.1-3.3,36.6,4.7,48.7,18.1c6.6,7.3,11.5,16.5,13.1,26.3
			c0.9,5.2,0.8,10.7-0.9,15.8c-1.3,3.7-3.3,7.2-5.9,10.1c-4.8,5.6-10.8,10-17.7,12.6c-8.3,3.1-17.4,3.9-26.1,3
			c-8.8-0.9-17.4-3.6-25.1-8.1c-6.8-4-12.8-9.3-17.7-15.5c-0.8-1-1.5-2-2.2-3c-0.9-1.3-3.1,0-2.2,1.3c9.8,13.9,24.3,23.7,41.1,26.9
			c9,1.7,18.4,1.7,27.3-0.5c8.3-2.1,15.6-6.2,21.8-12.2c6.2-6,10.2-13.7,10.6-22.5c0.5-10.8-3.7-21.7-9.9-30.4
			c-10.9-15.4-29.5-26-48.7-25.1c-18.4,0.8-36.4,12.2-44.3,29c-1,2-1.8,4.1-2.4,6.3C443.6,243.3,446,244,446.5,242.4z"/>
	</g>
</g>
<g>
	<path class="st70" d="M449.7,240.4c0.7,1.8,19.1-18.6,44.9-17.2c6.3,0.3,11.5,1.9,15.2,3.3c0.2-3.9,0.4-7.7,0.6-11.5
		c-7-1.8-18.3-3.3-31.3,1.6C461.1,223.4,449.1,239,449.7,240.4z"/>
</g>
<g>
	<g>
		<path class="st70" d="M480.3,227.5c-7.2,0.5-13.7,4.5-15.8,11.6c-2.3,8,1.5,16.6,9.2,19.8c3.2,1.4,6.9,1.8,10.3,1
			c3.6-0.8,6.4-3.2,8.8-5.9c2-2.3,3.8-4.8,4.5-7.8c0.8-3.1,0.9-6.5-0.1-9.5C494.8,229.6,487.2,227.1,480.3,227.5
			c-0.8,0-0.8,1.3,0,1.3c5.2-0.3,11.1,0.9,14.3,5.4c3.5,5,2.6,12.3-1,17c-1.8,2.4-3.9,4.8-6.5,6.3c-2.9,1.7-6.4,2-9.7,1.4
			c-7.6-1.5-12.9-8.3-12.3-16.1c0.3-4.2,2.4-8.3,5.8-10.8c2.7-2,6-2.9,9.4-3.2C481.1,228.7,481.1,227.5,480.3,227.5z"/>
	</g>
</g>
<g>
	<g>
		<path class="st70" d="M533.6,227.1c5.4-1.1,11.7-1.5,16.4,2c2.6,2,3.9,5,5.8,7.6c2.2,3.1,4.9,5.7,8.2,7.7c3.1,1.8,6.5,3,9.9,3.8
			c-0.3-0.4-0.6-0.8-0.9-1.2c0.2,6.2-2.2,12.8-7.5,16.4c-4.9,3.4-11.3,3.5-16.7,0.9c-1.4-0.7-2.7,1.5-1.3,2.2
			c6.1,2.9,13.5,3,19.2-0.9c6-4.2,9-11.4,8.7-18.6c0-0.5-0.4-1.1-0.9-1.2c-7.1-1.5-13.4-5.2-17.4-11.4c-1.8-2.8-3.3-5.6-6.1-7.6
			c-1.8-1.3-4-2.2-6.3-2.6c-3.9-0.8-8-0.4-11.9,0.5C531.4,225,532,227.4,533.6,227.1z"/>
	</g>
</g>
<g>
	<g>
		<path class="st70" d="M512.5,217.2c-0.2,2.8-0.4,5.6-0.6,8.4c0,0.6,0.6,1.3,1.3,1.3c0.7,0,1.2-0.6,1.3-1.3
			c0.2-2.8,0.4-5.6,0.7-8.4c0-0.6-0.6-1.3-1.3-1.3C513.1,216,512.6,216.5,512.5,217.2z"/>
	</g>
</g>
<g>
	<g>
		<path class="st70" d="M412.9,261.7c-0.9,3-0.4,6.3,1.6,8.8c2.2,2.7,6.1,4.7,9.2,2.3c1.7-1.3,2.5-3.3,2.8-5.4
			c0.1-0.7-0.6-1.3-1.3-1.3c-0.7,0-1.2,0.6-1.3,1.3c-0.1,1.3-0.7,2.5-1.6,3.3c-0.8,0.7-2,0.9-3.1,0.5c-1.1-0.4-2.1-1.4-2.9-2.3
			c0.1,0.1-0.1-0.1-0.1-0.2c-0.1-0.1-0.2-0.2-0.3-0.4c-0.2-0.3-0.4-0.7-0.5-1.1c-0.2-0.6-0.4-1.3-0.4-2c0-0.4,0-0.7,0-1.1
			c0-0.1,0-0.3,0-0.5c0,0,0-0.2,0-0.1c0,0.1,0-0.1,0-0.2c0.1-0.4,0.1-0.7,0.2-1C415.8,260.8,413.4,260.2,412.9,261.7z"/>
	</g>
</g>
<g>
	<g>
		<path class="st70" d="M518.2,256.2c3.1,0.4,6,2.2,7.6,4.9c1.1,1.9,1.7,4.2,1.1,6.3c-0.6,2-2,3.5-3.8,4.4c-1.4,0.8-0.2,2.9,1.3,2.2
			c3.9-2.1,6-6.3,5-10.7c-0.8-3.6-3.2-6.7-6.5-8.4c-1.2-0.6-2.6-1.1-4-1.3c-0.7-0.1-1.3,0.2-1.5,0.9
			C517.2,255.3,517.6,256.1,518.2,256.2z"/>
	</g>
</g>
<g>
	<path class="st72" d="M55,107.1c-3.5-1.3-6.8-2.4-11.2-2.5c-3.1-0.1-11.2-0.2-16.8,5.7c-0.9,1-5,5.4-4.5,11.6
		c0.6,7.1,6.8,11,8.4,12c0.7,0.5,2.3,1.4,8,2.9c10.1,2.7,15.5,4.5,23,4.3c2.8-0.1,6.3-0.3,9.3,1.9c1.6,1.2,2,2.2,4.1,5
		c0,0,2.5,3.2,6.6,7c4.1,3.8,7.9,5.9,12.4,8.3c7.2,3.9,13.2,5.7,14.9,6.2c1.9,0.6,9.1,2.7,16.8,3c4.8,0.2,28.8-0.1,43.3-17.9
		c4.1-5.1,6.8-11.5,7.4-18c0,0,2.6-17.6-8.9-33.7c-0.7-0.9-3.1-4.2-6.5-8.1c-2.8-3.3-5.2-5.7-5.8-6.4c-5.9-6-17.6-10.7-28.7-12.2
		c-6.1-0.8-17.7-2.5-30.7,3.3c-13.6,6-20.5,16.5-23.2,20.7c-3.2,4.9-5,9.5-6.2,12.8C64,111.2,60.1,108.9,55,107.1z"/>
	<path class="st70" d="M111.2,101.8c1.4,0.6,5.3,2.2,7.8,6.4c0.7,1.1,2.3,4,2.1,7.9c-0.3,4.1-2.4,6.8-3.1,7.7
		c2-2.4,4.4-5.8,6.5-10.1c2.5-5.2,3.7-10,4.3-13.6c-2.9,0.6-5.3,0.6-6.8,0.3c-2.7-0.3-3.9-1.1-8.2-2.3c-3-0.9-4.6-1.3-6.2-1.5
		c-1.4-0.2-8.8-1.1-14.7,3.7c-2.5,2-3.8,4.3-4.5,5.8c1.8-1.2,4.6-2.8,8.3-3.9C100.1,101.1,105.5,99.4,111.2,101.8z"/>
	<path class="st71" d="M97.2,99.3c8.6-3.8,16.6,0.5,18.7,1.8c1.9,1.2,3.2,2.8,3.2,2.8s2.2,2.5,2.9,6.1c1.5,7.3-3.4,13.3-4.8,15
		c-1.7,2-4.7,5.7-10.1,6.8c-6.4,1.3-11.4-2-12.6-2.8c-0.5-0.3-9.4-6.5-8.1-16.3C87.5,103.8,95.8,99.9,97.2,99.3z"/>
	<path class="st70" d="M114.4,105.3c0,2.2-1.7,3.9-3.7,3.9s-3.7-1.7-3.7-3.9s1.7-3.9,3.7-3.9C112.8,101.4,114.4,103.1,114.4,105.3z"
		/>
	<path class="st70" d="M105,109.3c7.5,4.9,9.2,17,5.1,20.8c-2.4,2.2-7.1,1.9-7.8,1.9c-0.5,0-2.8-0.2-5.4-1.4
		c-1.7-0.8-6.1-3.1-8.4-8.2c-0.6-1.3-3.7-7.9-0.6-12.2C91,105.5,99.7,105.8,105,109.3z"/>
	<path class="st72" d="M177.2,96.9c1.1,0.3,2.3,0.8,3.2,1.5c1,0.7,1.7,1.7,2.5,2.6c1.9,2.4,3.8,4.8,5.7,7.2c1.3,1.6,2.6,3.2,4.2,4.5
		c1.6,1.2,3.4,2.1,5.2,2.8c2.3,0.9,4.6,1.7,6.9,2.4c0.4,0.1,0.7,0.2,0.9,0.5c0.2,0.2,0.2,0.5,0.2,0.8c0.3,5.4-1.9,10.8-5.8,14.6
		s-9.2,6-14.6,6.2c-1.8,0.1-3.5-0.1-5.2-0.6c-0.6-0.2-1.3-0.4-1.7-0.9c-0.3-0.4-0.5-0.9-0.6-1.5c-1.6-6.2-1.8-12.7-3.3-18.9
		c-1.4-6.1-4-11.9-7.5-17.1c-1-1.4-2.2-2.8-3.1-4.2c0.5-0.6,2.3-0.6,3.1-0.7c1.1-0.2,2.2-0.2,3.3-0.2
		C172.9,96,175.1,96.3,177.2,96.9z"/>
	<path class="st70" d="M144.5,130.6c2.7-0.9,5.6-0.4,7.9,1.3c1,0.7,2.1,1.9,2.6,3.3c0.5,1.6,0.2,3.3-0.7,4.7c-1.2,1.9-3.1,3-5.2,3.6
		c-1.7,0.4-1,3.1,0.7,2.6c4.6-1.2,8.8-5.3,8.1-10.4c-0.5-3.5-3.4-6.3-6.5-7.5c-2.4-0.9-5.1-1-7.5-0.2
		C142.1,128.5,142.8,131.1,144.5,130.6z"/>
	<path class="st70" d="M138.4,86c-0.2,3-0.5,6.1-0.7,9.1c-0.1,0.7,0.7,1.4,1.4,1.4c0.8,0,1.3-0.6,1.4-1.4c0.2-3,0.5-6.1,0.7-9.1
		c0.1-0.7-0.7-1.4-1.4-1.4C138.9,84.6,138.4,85.2,138.4,86z"/>
	<path class="st73" d="M66.8,116.6c-5.3-5.6-12.6-9.8-20.3-10.2c-1,0-1.9-0.1-2.8,0l-1.4,0.1c-0.5,0.1-1,0.1-1.4,0.2
		c-1.9,0.4-3.8,0.9-5.6,1.6c-3.6,1.4-7,3.5-8.9,6.5c-0.9,1.5-1.4,3.2-1.4,5c0,1.8,0.4,3.6,1.1,5.3c0.7,1.7,1.8,3.3,3,4.7
		c1.3,1.4,2.7,2.6,4.4,3.7c3.3,2.1,7,3.7,10.8,4.5c1,0.2,1.9,0.4,2.9,0.5c1,0.1,2,0.2,3,0.3l6.2,0.6l24.7,2.2
		c8.2,0.7,16.5,1.4,24.7,1.6c2.1,0.1,4.1,0,6.1-0.1c2-0.1,4.1-0.4,6.1-0.6c4.1-0.5,8.2-1.1,12.2-1.9c8.1-1.5,16.1-3.4,24-5.7
		c0.4-0.1,0.9,0.1,1.1,0.6c0.1,0.4-0.1,0.9-0.6,1.1c-7.9,2.5-16,4.5-24.2,6.1c-4.1,0.8-8.2,1.5-12.3,2c-2.1,0.3-4.1,0.6-6.2,0.7
		c-2.1,0.2-4.2,0.2-6.3,0.2c-8.3-0.1-16.6-0.7-24.9-1.2l-24.8-1.9l-6.2-0.5c-1-0.1-2.1-0.1-3.2-0.3c-1.1-0.1-2.1-0.3-3.2-0.5
		c-4.2-0.9-8.3-2.5-12-4.8c-3.7-2.3-7-5.7-8.8-9.9c-0.9-2.1-1.5-4.4-1.5-6.7c0-2.3,0.6-4.8,1.9-6.8c1.2-2.1,2.9-3.7,4.8-5
		c1.8-1.3,3.8-2.3,5.9-3.2c2-0.8,4.1-1.4,6.3-1.9c0.5-0.1,1.1-0.2,1.6-0.3l1.7-0.2c1.1-0.2,2.2-0.1,3.3-0.1
		c4.5,0.1,8.8,1.5,12.7,3.5c3.9,2,7.4,4.6,10.5,7.8c0.8,0.9,0.8,2.2,0,3.1C69.1,117.5,67.7,117.5,66.8,116.6L66.8,116.6L66.8,116.6z
		"/>
	<path class="st74" d="M65.3,112c1.6-4.4,10-26.3,32.2-34.5c9.8-3.6,18.3-3,22.5-2.7c23.2,1.9,43,17.7,52,36.3
		c2.8,5.8,6.4,14.7,5.1,26.1c-1.4,12.5-10.1,20.1-12.9,22.7c-16.7,15.5-43,15.2-61.1,8.6c-17.9-6.4-28.4-19.1-33.1-25.7"/>
	<path class="st70" d="M70.1,111.1c0.8,1.9,20.8-20.3,48.9-18.8c6.8,0.4,12.5,2,16.6,3.6c0.2-4.2,0.4-8.4,0.6-12.6
		c-7.6-2-20-3.6-34.2,1.8C82.5,92.5,69.4,109.4,70.1,111.1z"/>
	<path class="st75" d="M103.4,97.6c-0.5,0-0.8,0.1-1.2,0.1c-2.6,0.3-8.2,1.4-12.2,6c-0.6,0.7-1.7,2.2-2.6,4.3c-2,4.8-1.9,11,1.3,16
		c4.5,7.1,13.2,9.2,19.5,7.3c4.6-1.4,7.6-5.1,9-6.8c1.2-1.4,2.8-3.4,3.8-6.4c0.3-1,2.8-8.7-1.8-14.7C114.4,97,105.4,97.5,103.4,97.6
		z"/>
	<path class="st70" d="M160.8,93.1c4.6-0.8,9.4-1.2,14.2,0.1c2.4,0.7,4.7,1.8,6.6,3.4c1.9,1.6,3.3,3.7,4.4,5.7
		c1.1,2,2.2,3.8,3.5,5.5c1.3,1.7,2.9,3.2,4.6,4.5c3.4,2.7,7.5,4.4,11.8,5.7h0l0.2,0.1l0,0.2c0.1,1.8,0.1,3.6-0.1,5.4
		c-0.3,1.8-0.7,3.6-1.3,5.3c-1.3,3.4-3.4,6.6-6.4,9c-2.9,2.4-6.6,4-10.5,4.3c-3.9,0.3-7.7-0.4-11.3-1.9c-1.1-0.5-1.6-1.8-1.1-2.9
		c0.5-1.1,1.8-1.6,2.9-1.1c0.1,0,0.1,0.1,0.2,0.1l0,0c2.8,1.5,6,2.4,9.3,2.4c3.2,0,6.4-1,9.2-2.9c2.7-1.9,4.9-4.6,6.4-7.6
		c0.7-1.5,1.3-3.2,1.7-4.9c0.4-1.7,0.6-3.4,0.6-5.2l0.2,0.3h0c-4.5-0.6-8.9-2.1-12.8-4.7c-1.9-1.3-3.7-2.8-5.3-4.5
		c-1.6-1.7-2.9-3.7-4.1-5.6c-1.2-1.9-2.4-3.5-4.1-4.6c-1.6-1.2-3.5-2-5.4-2.4c-4-0.8-8.3-0.4-12.4,0.6h0c-1.2,0.3-2.4-0.4-2.6-1.6
		c-0.3-1.2,0.4-2.3,1.6-2.6C160.7,93.1,160.7,93.1,160.8,93.1z"/>
	<path class="st70" d="M36.5,138.9c-0.9,0.9-1.3,2.4-1.1,3.9c0.1,0.7,0.4,1.4,0.9,2.1c0.5,0.6,1,1.1,1.7,1.5
		c1.3,0.7,3.1,0.8,4.5,0.1c1.4-0.7,2.4-2.1,2.3-3.6c-0.1-1.3,0.9-2.5,2.2-2.6c1.3-0.1,2.5,0.9,2.6,2.2c0,0.6-0.2,1.3-0.5,1.7
		l-0.3,0.4c-1.6,1.9-3.4,3.2-5.5,3.9c-2,0.6-4.3,0.7-6.2-0.2c-2-0.9-3.5-2.6-4.3-4.6c-0.8-2-0.9-4.5-0.1-6.8l0.1-0.3
		c0.4-1.2,1.7-1.8,2.9-1.4c1.2,0.4,1.8,1.7,1.4,2.9C36.9,138.4,36.7,138.7,36.5,138.9z"/>
</g>
<g>
	<path class="st69" d="M364.4-150.5c-3.3-1.1-6.2-2.2-10.2-2.3c-2.9-0.1-10.3-0.2-15.4,5.2c-0.8,0.9-4.6,4.9-4.2,10.6
		c0.5,6.5,6.3,10.1,7.7,11c0.7,0.4,2.1,1.3,7.3,2.7c9.3,2.5,14.3,4.1,21.1,4c2.6,0,5.7-0.3,8.5,1.7c1.5,1.1,1.8,2.1,3.8,4.6
		c0,0,2.3,2.9,6.1,6.4c3.8,3.5,7.3,5.4,11.4,7.6c6.6,3.5,12.1,5.2,13.6,5.7c1.8,0.5,8.4,2.5,15.5,2.8c4.4,0.2,26.4-0.1,39.7-16.5
		c3.8-4.7,6.2-10.5,6.8-16.5c0,0,2.4-16.1-8.2-30.9c-0.6-0.8-2.8-3.9-5.9-7.5c-2.6-3-4.7-5.3-5.3-5.9c-5.4-5.5-16.1-9.8-26.4-11.2
		c-5.6-0.8-16.2-2.3-28.1,3c-12.5,5.5-18.9,15.2-21.3,18.9c-2.9,4.5-4.6,8.7-5.6,11.8C372.6-146.8,369-148.9,364.4-150.5z"/>
	<path class="st70" d="M415.9-155.4c1.3,0.5,4.8,2,7.1,5.9c0.6,1,2.1,3.6,1.9,7.3c-0.2,3.7-2.2,6.2-2.9,7.1c1.9-2.2,4-5.3,5.9-9.2
		c2.3-4.8,3.4-9.2,4-12.4c-2.7,0.6-4.8,0.5-6.3,0.3c-2.5-0.3-3.5-1-7.5-2.1c-2.8-0.8-4.2-1.2-5.7-1.4c-1.3-0.2-8.1-1-13.5,3.4
		c-2.3,1.8-3.5,4-4.2,5.3c1.6-1.1,4.2-2.6,7.6-3.6C405.7-156,410.7-157.6,415.9-155.4z"/>
	<path class="st71" d="M403-157.7c7.9-3.5,15.2,0.4,17.1,1.6c1.8,1.1,2.9,2.5,2.9,2.5s2,2.3,2.6,5.6c1.4,6.7-3.2,12.2-4.4,13.8
		c-1.5,1.8-4.3,5.2-9.3,6.2c-5.8,1.2-10.4-1.8-11.6-2.6c-0.4-0.3-8.6-6-7.4-15C394.2-153.6,401.8-157.1,403-157.7z"/>
	<path class="st70" d="M418.9-152.2c0,2-1.5,3.6-3.4,3.6s-3.4-1.6-3.4-3.6s1.5-3.6,3.4-3.6C417.3-155.8,418.9-154.2,418.9-152.2z"/>
	<path class="st70" d="M410.2-148.5c6.9,4.5,8.5,15.6,4.6,19c-2.2,2-6.5,1.7-7.2,1.7c-0.4,0-2.5-0.2-5-1.3c-1.6-0.7-5.6-2.9-7.7-7.5
		c-0.6-1.2-3.4-7.2-0.5-11.2C397.4-152,405.3-151.7,410.2-148.5z"/>
	<path class="st69" d="M476.4-159.9c1,0.3,2.1,0.7,3,1.4c0.9,0.6,1.6,1.5,2.3,2.4c1.8,2.2,3.5,4.4,5.3,6.6c1.2,1.5,2.4,2.9,3.8,4.1
		c1.4,1.1,3.1,1.9,4.8,2.6c2.1,0.9,4.2,1.6,6.3,2.2c0.3,0.1,0.7,0.2,0.9,0.5c0.1,0.2,0.2,0.5,0.2,0.8c0.2,4.9-1.8,9.9-5.3,13.4
		c-3.5,3.5-8.4,5.5-13.4,5.7c-1.6,0.1-3.2-0.1-4.8-0.5c-0.6-0.2-1.2-0.4-1.6-0.8c-0.3-0.4-0.5-0.9-0.6-1.3c-1.4-5.7-1.7-11.6-3-17.3
		c-1.3-5.6-3.6-10.9-6.8-15.7c-0.9-1.3-2-2.5-2.9-3.9c0.5-0.5,2.1-0.6,2.8-0.7c1-0.1,2-0.2,3-0.2
		C472.4-160.7,474.5-160.4,476.4-159.9z"/>
	<g>
		<g>
			<path class="st70" d="M446.4-129c2.5-0.8,5.1-0.4,7.2,1.2c0.9,0.7,2,1.8,2.4,3c0.5,1.5,0.1,3-0.7,4.3c-1.1,1.7-2.9,2.8-4.8,3.3
				c-1.6,0.4-0.9,2.8,0.7,2.4c4.2-1.1,8.1-4.9,7.4-9.5c-0.4-3.2-3.1-5.7-6-6.9c-2.2-0.9-4.7-0.9-6.9-0.2
				C444.2-130.9,444.9-128.5,446.4-129z"/>
		</g>
	</g>
	<g>
		<g>
			<path class="st70" d="M440.8-169.9c-0.2,2.8-0.4,5.6-0.6,8.4c0,0.6,0.6,1.3,1.3,1.3c0.7,0,1.2-0.6,1.3-1.3
				c0.2-2.8,0.4-5.6,0.6-8.4c0-0.6-0.6-1.3-1.3-1.3C441.3-171.1,440.9-170.6,440.8-169.9z"/>
		</g>
	</g>
	<g>
		<path class="st70" d="M375.2-141.8c-4.9-5.1-11.6-9-18.6-9.4c-0.9,0-1.8-0.1-2.6,0l-1.3,0.1c-0.4,0.1-0.9,0.1-1.3,0.2
			c-1.8,0.3-3.5,0.8-5.1,1.5c-3.3,1.3-6.4,3.2-8.1,6c-0.8,1.4-1.3,2.9-1.3,4.6c0,1.6,0.3,3.3,1,4.9c0.7,1.6,1.6,3.1,2.8,4.3
			c1.1,1.3,2.5,2.4,4,3.4c3,2,6.4,3.4,10,4.2c0.9,0.2,1.8,0.3,2.7,0.5c0.9,0.1,1.8,0.2,2.8,0.3l5.7,0.5l22.7,2
			c7.5,0.6,15.1,1.3,22.6,1.4c1.9,0,3.8,0,5.6-0.1c1.8-0.1,3.7-0.4,5.6-0.6c3.8-0.5,7.5-1,11.2-1.7c7.4-1.3,14.8-3.1,22-5.3
			c0.4-0.1,0.9,0.1,1,0.5c0.1,0.4-0.1,0.8-0.5,1c-7.3,2.3-14.7,4.1-22.2,5.6c-3.7,0.7-7.5,1.4-11.3,1.9c-1.9,0.3-3.8,0.5-5.7,0.7
			c-1.9,0.2-3.9,0.2-5.8,0.2c-7.6-0.1-15.2-0.6-22.8-1.1l-22.7-1.7l-5.7-0.4c-0.9-0.1-1.9-0.1-2.9-0.3c-1-0.1-2-0.3-2.9-0.5
			c-3.9-0.8-7.6-2.3-11-4.4c-3.4-2.1-6.4-5.2-8.1-9c-0.8-1.9-1.4-4-1.3-6.2c0-2.1,0.6-4.4,1.7-6.3c1.1-1.9,2.7-3.4,4.4-4.6
			c1.7-1.2,3.5-2.1,5.4-2.9c1.9-0.8,3.8-1.3,5.8-1.7c0.5-0.1,1-0.2,1.5-0.3l1.5-0.1c1-0.1,2-0.1,3.1-0.1c4.1,0.1,8.1,1.4,11.7,3.2
			c3.6,1.9,6.8,4.2,9.6,7.1c0.8,0.8,0.8,2.1,0,2.8S376-141,375.2-141.8L375.2-141.8L375.2-141.8z"/>
	</g>
	<path class="st75" d="M373.8-146c1.5-4,9.2-24.1,29.6-31.6c9-3.3,16.7-2.8,20.6-2.5c21.3,1.8,39.4,16.2,47.7,33.3
		c2.6,5.4,5.9,13.5,4.7,23.9c-1.3,11.4-9.3,18.4-11.9,20.8c-15.3,14.2-39.4,13.9-56.1,7.9c-16.4-5.9-26-17.6-30.3-23.6"/>
	<path class="st70" d="M378.2-146.9c0.7,1.8,19.1-18.6,44.9-17.2c6.3,0.3,11.5,1.9,15.2,3.3c0.2-3.9,0.4-7.7,0.6-11.5
		c-7-1.8-18.3-3.3-31.3,1.6C389.6-163.9,377.6-148.4,378.2-146.9z"/>
	<path class="st75" d="M408.8-159.2c-0.4,0-0.8,0.1-1.1,0.1c-2.4,0.3-7.5,1.3-11.2,5.5c-0.5,0.6-1.6,2-2.4,4
		c-1.8,4.4-1.8,10.1,1.2,14.7c4.1,6.5,12.1,8.5,17.9,6.7c4.2-1.3,6.9-4.7,8.3-6.3c1.1-1.3,2.6-3.1,3.5-5.9c0.3-0.9,2.5-8-1.7-13.5
		C418.8-159.8,410.6-159.3,408.8-159.2z"/>
	<g>
		<path class="st70" d="M461.4-163.4c4.2-0.8,8.7-1.1,13,0.1c2.2,0.6,4.3,1.6,6,3.1c1.8,1.5,3.1,3.4,4.1,5.2c1,1.8,2,3.5,3.2,5
			c1.2,1.5,2.6,2.9,4.2,4.1c3.1,2.4,6.9,4.1,10.8,5.2h0l0.2,0.1l0,0.2c0.1,1.6,0.1,3.3-0.1,4.9c-0.2,1.6-0.6,3.3-1.2,4.9
			c-1.2,3.1-3.2,6.1-5.8,8.3c-2.7,2.2-6.1,3.6-9.6,3.9c-3.5,0.3-7.1-0.3-10.4-1.7c-1-0.4-1.5-1.6-1.1-2.6s1.6-1.5,2.6-1.1
			c0.1,0,0.1,0.1,0.2,0.1l0,0c2.6,1.4,5.5,2.2,8.5,2.2c3,0,5.9-0.9,8.4-2.6c2.5-1.7,4.5-4.2,5.9-7c0.7-1.4,1.2-2.9,1.6-4.5
			c0.3-1.6,0.5-3.1,0.5-4.8l0.2,0.3h0c-4.1-0.6-8.2-1.9-11.7-4.3c-1.8-1.1-3.4-2.6-4.9-4.1c-1.5-1.6-2.6-3.4-3.7-5.1
			c-1.1-1.7-2.2-3.2-3.7-4.3c-1.5-1.1-3.2-1.8-5-2.2c-3.6-0.8-7.6-0.4-11.4,0.6h0c-1.1,0.3-2.2-0.4-2.4-1.5s0.4-2.2,1.5-2.4
			C461.3-163.4,461.3-163.4,461.4-163.4z"/>
	</g>
	<g>
		<path class="st70" d="M347.4-121.4c-0.9,0.9-1.2,2.3-1,3.6c0.1,0.7,0.4,1.3,0.8,1.9c0.4,0.6,0.9,1,1.5,1.4
			c1.2,0.6,2.8,0.7,4.1,0.1c1.3-0.6,2.2-2,2.1-3.3c-0.1-1.2,0.8-2.3,2-2.4c1.2-0.1,2.3,0.8,2.4,2.1c0,0.6-0.1,1.2-0.5,1.6l-0.3,0.4
			c-1.4,1.8-3.1,3-5,3.6c-1.8,0.6-3.9,0.7-5.7-0.2c-1.8-0.8-3.2-2.4-4-4.3c-0.8-1.9-0.8-4.1-0.1-6.2l0.1-0.3
			c0.4-1.1,1.5-1.7,2.6-1.3c1.1,0.4,1.7,1.5,1.3,2.6C347.8-121.8,347.6-121.6,347.4-121.4z"/>
	</g>
</g>
<g>
	<path d="M1230.1,213.5c3.7-7,7-14.1,10.9-20.8c25.9-44.4,62-76.1,113.5-86.4c45.3-9.1,88.3-0.6,128.9,20.7
		c18.1,9.5,34.6,21.4,48.9,36c4.2,4.2,8.1,5.2,13.6,4.4c11.7-1.7,23.3-0.8,34.5,2.8c14.6,4.6,25,14.3,32,27.7
		c7.9,15.1,18.1,28.2,33,36.5c8.6,4.8,18.2,8.1,27.2,12.2c1.3,0.6,3.1,2.2,3.2,3.4c2.6,30.5-14.2,61.3-44.2,71.2
		c-11.8,3.9-23.9,3.6-36,1.1c-1.4-0.3-2.9-0.7-4.7-1.1c-1,3.1-1.8,6.1-2.9,9c-12,33.9-36,57.5-66.1,75.4
		c-24.7,14.6-51.9,20.9-80.4,22.3c-47.8,2.3-92.5-8-133.4-33.4c-24.3-15.1-45-34.3-61.9-57.4c-2.8-3.8-5.8-5.4-10.7-5.7
		c-15.3-0.8-30.5-2.2-45.8-3.6c-3.7-0.3-6.3,0.1-8.8,3.5c-6.9,9.1-16.3,14.5-27.9,13.9c-14.4-0.7-24.8-12.9-24.4-28.2
		c0.1-4-0.9-6.2-4.4-8.3c-12.4-7.5-21.9-17.9-28.1-31c-11.8-25.1-5.2-50.6,18.2-65.6c36.1-23.1,73-24,110.2-2
		C1226.4,211.2,1228.2,212.3,1230.1,213.5z M1512.3,297.2c-8.4-9.7-17.7-12.9-28.7-10.2c-3.1,0.8-5.8,1.1-6.8-2.6
		c-1-3.8,1.4-5.3,4.7-6.2c13.9-3.9,30.5,1.9,38.3,14.1c12.6,19.7-3.5,39.6-21.7,43.4c-1.5,0.3-4.2-1.7-5-3.4c-0.5-1,1.4-3.5,2.8-4.9
		c0.9-1,2.8-1,4.2-1.6c6.9-2.8,12-7.3,14.5-15.4c-41,12.4-81.9,21.6-123.8,26.5c-42,4.9-83.8-1.4-126.2-2.1
		c10.7,11.2,21.2,22.4,33,32c38.9,31.5,84.2,45.4,133.9,45c39.1-0.3,75.1-10.2,105.1-36.6c15.1-13.2,28.1-28,34.9-47.3
		c9.6-26.8,7.2-53.5-2.4-79.6c-18.1-49.1-51.2-85.3-97.5-109c-36.7-18.8-75.7-25-116.3-16.5c-33.8,7-60.6,25.6-82.4,52
		c-12.3,14.9-21.7,31.4-29,48.7c2.5,2.7,4.8,5.1,7,7.6c2.8,3.3,3.7,7,2.3,11.1c-1.4,4.2-4.6,6.5-8.7,7.3c-4.6,0.8-7.8-1.6-11.1-4.5
		c-6.1-5.4-12.1-11-18.8-15.5c-30.3-20.3-63.3-17.8-90.4,0.4c-13.3,8.9-17.2,22.1-11.2,36.8c2.3,5.7,5.7,11.4,9.9,16
		c13,14.1,29.7,22.2,48.4,24.6c26.7,3.5,53.6,5.7,80.4,8c28.5,2.5,57,4.9,85.6,6.6c15.6,0.9,31.4,1.8,46.9,0
		c26.6-3.1,52.9-7.7,79.2-12.7C1479.5,306.2,1495.3,301.5,1512.3,297.2z M1549.7,181c0.7,1,1.3,1.9,2,2.8
		c11.6,14.9,21.3,30.9,28.7,48.4c9.7,22.5,14.8,45.9,12.9,70.4c-0.3,3.9,0.9,5.2,4.2,6.4c27.4,9.9,55.8-1.7,68.5-28
		c4.8-10,7.8-20.3,7.6-30.9c-8.8-2.8-17.2-4.9-25.2-8.1c-19.7-7.9-33.4-22.4-44.3-40.2C1592.7,183.7,1568.1,174.3,1549.7,181z
		 M1167.9,326.4c-9.5-2.9-18.5-5.6-27.8-8.4c-2.1,6.1-0.8,11.7,3.9,16.2c4.6,4.4,10.1,5.7,16.1,3.2
		C1164.8,335.3,1168,331.9,1167.9,326.4z"/>
	<path class="st76" d="M1512.3,297.2c-17,4.3-32.8,9-48.9,12c-26.3,4.9-52.7,9.6-79.2,12.7c-15.4,1.8-31.3,1-46.9,0
		c-28.6-1.7-57.1-4.1-85.6-6.6c-26.8-2.4-53.7-4.5-80.4-8c-18.7-2.5-35.5-10.5-48.4-24.6c-4.2-4.5-7.6-10.2-9.9-16
		c-6-14.7-2-27.8,11.2-36.8c27.1-18.2,60-20.7,90.4-0.4c6.7,4.5,12.7,10.1,18.8,15.5c3.3,2.9,6.5,5.3,11.1,4.5
		c4.2-0.8,7.3-3.1,8.7-7.3c1.4-4.2,0.5-7.9-2.3-11.1c-2.2-2.5-4.5-4.9-7-7.6c7.3-17.3,16.8-33.9,29-48.7c21.7-26.4,48.6-45,82.4-52
		c40.6-8.4,79.6-2.3,116.3,16.5c46.3,23.7,79.4,59.9,97.5,109c9.6,26.1,12,52.8,2.4,79.6c-6.9,19.2-19.9,34.1-34.9,47.3
		c-30.1,26.4-66.1,36.3-105.1,36.6c-49.7,0.4-95-13.5-133.9-45c-11.8-9.6-22.3-20.8-33-32c42.4,0.7,84.2,7,126.2,2.1
		c41.8-4.9,82.8-14.1,123.8-26.5c-2.5,8.1-7.6,12.6-14.5,15.4c-1.4,0.6-3.2,0.6-4.2,1.6c-1.3,1.3-3.2,3.8-2.8,4.9
		c0.7,1.6,3.5,3.7,5,3.4c18.2-3.8,34.3-23.7,21.7-43.4c-7.8-12.2-24.3-18-38.3-14.1c-3.3,0.9-5.7,2.5-4.7,6.2c1,3.7,3.7,3.4,6.8,2.6
		C1494.6,284.3,1503.9,287.5,1512.3,297.2z M1432.9,191.3c-14.6,3.2-27.6,2-39.7-3.8c-13.1-6.4-26.7-8.9-41.1-7.9
		c-36.7,2.4-59.5,28.8-57.7,62.5c2,39.2,45.1,66.1,80.7,49.5c17.5-8.2,29.1-22.8,36.7-40.5c2.8-6.4,5.5-12.8,8.2-19.2
		c1.9-4.4,4.1-8.8,5.5-13.4C1428.1,209.8,1430.3,201,1432.9,191.3z M1246.8,224.9c0.6,0.6,1.2,1.2,1.9,1.8c2.3-1.4,4.8-2.7,7-4.3
		c18.8-13.8,37.8-27,59-37c44.1-20.6,89.2-25,135.6-8.4c1,0.4,2.1,0.5,3.8,0.8c0.6-12.6,1.3-24.7,1.6-36.8c0-1.2-2.1-3.1-3.5-3.5
		c-28.8-7.1-57.6-7.1-86.3,0.8c-43.1,11.9-77.9,36.5-107,69.9C1254.3,213.4,1250.8,219.3,1246.8,224.9z M1460.4,171.6
		c0,1.1-0.4,2.9,0.1,4.4c0.6,1.5,2.1,3.5,3.3,3.6c1.6,0.1,3.5-1.2,4.8-2.4c0.8-0.8,0.8-2.5,1-3.8c0.7-8.4,1.5-16.9,2-25.3
		c0.2-3-1.2-5.8-4.4-5.3c-1.7,0.2-4.3,2.7-4.5,4.5C1461.6,155.1,1461.2,163.1,1460.4,171.6z"/>
	<path class="st76" d="M1549.7,181c18.4-6.7,43.1,2.7,54.3,20.9c10.9,17.7,24.6,32.3,44.3,40.2c8,3.2,16.4,5.3,25.2,8.1
		c0.2,10.6-2.8,21-7.6,30.9c-12.7,26.3-41.1,37.8-68.5,28c-3.3-1.2-4.5-2.5-4.2-6.4c1.9-24.6-3.2-47.9-12.9-70.4
		c-7.5-17.4-17.1-33.4-28.7-48.4C1550.9,183,1550.3,182,1549.7,181z"/>
	<path d="M1432.9,191.3c-2.6,9.7-4.8,18.5-7.4,27.1c-1.4,4.6-3.6,8.9-5.5,13.4c-2.7,6.4-5.4,12.8-8.2,19.2
		c-7.7,17.7-19.2,32.3-36.7,40.5c-35.6,16.6-78.7-10.3-80.7-49.4c-1.7-33.7,21-60.1,57.7-62.5c14.4-0.9,28,1.6,41.1,7.9
		C1405.3,193.3,1418.3,194.5,1432.9,191.3z M1306.4,218.7c18.2-10.3,35.8-9,51.5,1.9c20.2,14.1,25.9,34.8,21.1,58.6
		c16.6-8.6,29.9-34.2,28.1-53.4c-1.4-15-8.1-26.6-21.9-32.6c-20.3-8.8-40.5-7.8-59.9,3C1316.4,201.1,1310.4,208.7,1306.4,218.7z"/>
	<path d="M1246.8,224.9c4-5.6,7.5-11.5,12-16.7c29.1-33.4,63.9-58,107-69.9c28.6-7.9,57.5-7.8,86.3-0.8c1.4,0.4,3.6,2.3,3.5,3.5
		c-0.3,12.1-1,24.2-1.6,36.8c-1.7-0.4-2.8-0.5-3.8-0.8c-46.4-16.6-91.5-12.2-135.6,8.4c-21.2,9.9-40.3,23.2-59,37
		c-2.2,1.6-4.7,2.9-7,4.3C1248.1,226.1,1247.4,225.5,1246.8,224.9z"/>
	<path d="M1460.4,171.6c0.7-8.5,1.2-16.5,2.3-24.4c0.3-1.8,2.8-4.2,4.5-4.5c3.2-0.4,4.6,2.4,4.4,5.3c-0.6,8.4-1.3,16.9-2,25.3
		c-0.1,1.3-0.2,3-1,3.8c-1.3,1.2-3.2,2.5-4.8,2.4c-1.2-0.1-2.7-2.1-3.3-3.6C1460,174.6,1460.4,172.7,1460.4,171.6z"/>
	<path class="st77" d="M1306.4,218.7c4.1-10,10.1-17.6,18.8-22.4c19.4-10.8,39.7-11.8,59.9-3c13.9,6,20.6,17.6,21.9,32.6
		c1.8,19.2-11.5,44.7-28.1,53.4c4.9-23.8-0.9-44.5-21.1-58.6C1342.2,209.6,1324.5,208.4,1306.4,218.7z M1376.1,219.9
		c6.4-0.1,11.7-5.8,11.6-12.4c-0.1-6.7-5.5-12.1-12-12.1c-6.6,0.1-11.6,5.5-11.5,12.4C1364.3,214.8,1369.4,220,1376.1,219.9z"/>
	<path d="M1376.1,219.9c-6.7,0.1-11.7-5.1-11.8-12.1c-0.1-6.9,4.9-12.3,11.5-12.4c6.5-0.1,11.8,5.3,12,12.1
		C1387.8,214.2,1382.5,219.9,1376.1,219.9z"/>
</g>
<g>
	<path d="M99.3,247.4c4.9-10.9,11.3-20.7,20.1-28.9c15.1-14.1,32.9-20.4,53.5-19.1c23.1,1.4,42.6,10.8,59,26.9c1,1,2,1.3,3.4,1.2
		c4.3-0.1,8.7-0.4,13,0.2c7.8,1.1,13.6,5.5,17.3,12.5c2.9,5.4,6.3,10.4,11.4,14.1c4.5,3.3,9.4,5.7,14.7,7.3c1.5,0.4,1.9,1.1,1.9,2.6
		c0.6,13.9-7.2,26.2-19.4,30.2c-5.2,1.7-10.4,1.6-15.7,0.5c-0.6-0.1-1.3-0.3-2.1-0.5c-0.4,1.3-0.8,2.7-1.2,3.9
		c-6.2,16.7-18.2,27.9-33.8,35.4c-13.2,6.3-27.3,8-41.8,7.1c-16.8-1.1-32.5-5.7-46.8-14.7c-10.5-6.6-19.4-15-26.8-25
		c-1.1-1.5-2.3-2.2-4.3-2.3c-6.7-0.4-13.3-0.9-20-1.6c-1.8-0.2-3,0.1-4.2,1.7c-3,4-7.2,6.3-12.2,5.9c-6.2-0.4-10.6-5.7-10.5-12.3
		c0-1.7-0.4-2.7-1.9-3.6c-5.4-3.3-9.5-7.8-12.2-13.5c-5.1-10.9-2.3-22.1,7.9-28.6c15.7-10.1,31.8-10.5,48-0.9
		c0.8,0.4,1.5,0.9,2.2,1.4C99,247.4,99.1,247.4,99.3,247.4z M223.2,289.8c-0.9,0.2-1.4,0.3-1.9,0.5c-7.6,2-15.1,4.3-22.7,5.9
		c-10.4,2.1-20.8,4.1-31.3,5.3c-14.3,1.7-28.7-0.1-43.1-0.9c-3.3-0.2-6.5-0.5-9.8-0.7c-0.1,0.3-0.3,0.5-0.4,0.8
		c4.8,4.6,9.4,9.5,14.6,13.6c17,13.8,36.7,19.8,58.4,19.6c20-0.1,37.6-6.3,51.5-21.4c7.8-8.5,12.1-18.3,12.1-29.9
		c0-10.5-2.8-20.3-7.8-29.4c-15.6-28.2-39-44.7-71.7-46.7c-14.4-0.9-27.4,2.7-39.3,10.9c-11.4,7.9-19.4,18.6-25.3,31
		c-1.6,3.4-1.6,3.4,1,6.1c1.6,1.6,2.3,3.3,1.5,5.5c-1.3,3.5-5.2,4.2-8.2,1.6c-2.8-2.4-5.5-5-8.5-7.1c-13.3-9-27.8-7.8-39.6,0.1
		c-5.8,3.9-7.5,9.7-4.8,16c1,2.5,2.5,5,4.3,6.9c5.6,6.1,12.9,9.4,20.9,10.7c6.1,1,12.3,1.4,18.4,1.9c9.4,0.9,18.8,1.7,28.2,2.5
		c6.3,0.5,12.6,1.2,18.9,1.5c9.1,0.4,18.3,1.1,27.3,0.4c17.1-1.3,33.9-4.8,50.4-9.4c1.8-0.5,3.5-1,5.4-1.6
		c-3.3-4.1-7.3-5.4-12.4-4.2c-1.3,0.3-2.4,0.3-2.8-1.2c-0.4-1.5,0.4-2.3,1.8-2.6c3.6-0.9,7.1-0.8,10.4,0.7c5.6,2.5,8.7,7.3,8.3,12.6
		c-0.4,5.1-4.9,10.1-10.4,11.6c-2,0.5-3.6-0.4-3.1-1.9c0.2-0.8,1.3-1.5,2.1-1.8C219.2,295.7,221.8,293.7,223.2,289.8z M292.5,263.3
		c-0.3-0.2-0.4-0.3-0.5-0.3c-13.4-2.2-23.3-9.4-30.1-21.1c-3.4-5.8-8.9-8.6-15.5-9.1c-2.6-0.2-5.2,0-7.8,0
		c5.3,7.5,9.8,14.8,13.3,22.8c4.2,9.8,6.5,20,5.6,30.7c-0.1,1.8,0.5,2.4,2,2.9c10.9,3.8,21.9,0.1,28.1-9.6
		C290.8,274.7,292.4,269.2,292.5,263.3z M59.9,293c-0.9,2.9-0.3,5.3,2,7.3c2.1,1.8,4.5,2.3,7.1,1c1.9-0.9,3.2-2.4,3.1-4.6
		C68,295.5,64,294.3,59.9,293z"/>
	<path d="M187.6,237.8c-1.2,4.3-2.1,8.1-3.3,11.9c-0.6,2-1.6,3.9-2.4,5.8c-1.2,2.8-2.3,5.6-3.6,8.4c-3.6,8-8.8,14.9-17.3,18.1
		c-14.6,5.6-32.8-4.3-33.9-21.9c-0.9-15.4,9.9-26.9,25.4-27.4c6.1-0.2,11.9,0.7,17.5,3.4C175.4,238.7,181.1,239.2,187.6,237.8z
		 M132.3,249.9c6.8-4.1,14.8-4.4,21.6,0c9.5,6.1,12.2,15.4,10.1,26.7c5.8-5.3,10.8-10.5,12.1-18.3c1.3-8.5-1.6-15.9-8.3-19.2
		c-9.2-4.6-18.5-4.1-27.4,1C136.6,242.2,134.2,245.5,132.3,249.9z"/>
	<path d="M108,252c0.6-1.3,1.8-3.9,3.7-6.8c13.9-21.8,39.5-28.5,46.7-30.4c12.5-3.4,25.1-3.4,37.6-0.3c0.6,0.1,1.5,0.9,1.5,1.4
		c-0.1,5.4-0.4,10.7-0.7,16.2c-3.9-1.1-7.5-2.2-11.1-3.1c-17.3-3.9-33.7-1-49.5,6.3c-9.3,4.3-17.7,10.2-25.9,16.2
		c-0.1,0-0.3,0.3-0.7,0.5C109,252.1,108.4,252.1,108,252z"/>
	<path d="M199.6,229.1c0.3-3.5,0.6-6.9,0.9-10.4c0.1-1.3,0.6-2.3,2.1-2.2c1.5,0.1,2,1.2,1.8,2.6c-0.3,3.4-0.5,6.8-0.8,10.2
		c0,0.4,0.1,1-0.3,1.5c-0.8,0.9-3.2,0.8-3.8-0.4C199.4,229.9,199.5,229.4,199.6,229.1C199.6,229.1,199.6,229.1,199.6,229.1z"/>
	<path d="M162.7,250.3c-2.9,0-5.1-2.3-5.1-5.4c0-3,2.2-5.3,5.1-5.3c2.8,0,5.1,2.4,5.1,5.4S165.5,250.3,162.7,250.3z"/>
	<path d="M107.4,252"/>
</g>
<text transform="matrix(1 0 0 1 566.1523 -4.9634)" style="font-family:'ArialMT'; font-size:12px;">Lorem ipsum</text>
</svg>
